<svg width="25" height="25" viewBox="0 0 25 25" fill="none" xmlns="http://www.w3.org/2000/svg">
<path fill-rule="evenodd" clip-rule="evenodd" d="M12.5 5C8.35938 5 5 8.35938 5 12.5C5 16.6406 8.35938 20 12.5 20C16.6325 20 20 16.6406 20 12.5C20 8.35938 16.6325 5 12.5 5ZM17.4538 8.45688C18.3772 9.58146 18.8882 10.9881 18.9019 12.4431C18.6906 12.4025 16.5756 11.9712 14.4444 12.24C14.395 12.1337 14.3544 12.02 14.3056 11.9062C14.1731 11.5934 14.0322 11.2841 13.8831 10.9788C16.2419 10.0188 17.3156 8.63625 17.4538 8.45688ZM12.5 6.10688C14.1269 6.10688 15.6156 6.71625 16.7463 7.71688C16.6325 7.87937 15.6644 9.17313 13.3869 10.0269C12.3369 8.09938 11.1744 6.52062 10.995 6.27688C11.4883 6.16168 11.9934 6.10442 12.5 6.10625V6.10688ZM9.775 6.70812C9.94562 6.93625 11.0844 8.5225 12.15 10.4094C9.15625 11.2069 6.5125 11.1906 6.22812 11.1906C6.64313 9.20562 7.98563 7.55437 9.775 6.70812ZM6.09 12.5081V12.3131C6.36687 12.3212 9.47375 12.3619 12.6713 11.4019C12.8581 11.76 13.0288 12.1256 13.1912 12.4919C13.11 12.5163 13.0206 12.5406 12.9394 12.565C9.63688 13.6306 7.87937 16.5425 7.73313 16.7869C6.67526 15.6128 6.08988 14.0885 6.09 12.5081ZM12.5 18.91C11.0763 18.9122 9.6929 18.4369 8.57125 17.56C8.685 17.3238 9.98625 14.8181 13.5981 13.5575C13.6144 13.5494 13.6231 13.5494 13.6388 13.5413C14.5419 15.8756 14.9075 17.8363 15.0056 18.3975C14.2325 18.7313 13.3869 18.91 12.5 18.91ZM16.0713 17.8119C16.0063 17.4213 15.6644 15.5506 14.8263 13.2481C16.8356 12.9312 18.5925 13.4519 18.8125 13.525C18.5356 15.3063 17.5106 16.8438 16.0713 17.8119Z" fill="white"/>
<circle cx="12.5" cy="12.5" r="12.5" fill="#B8B8B8" fill-opacity="0.25"/>
</svg>
