<svg width="25" height="25" viewBox="0 0 25 25" fill="none" xmlns="http://www.w3.org/2000/svg">
<path fill-rule="evenodd" clip-rule="evenodd" d="M10.61 5C8.97867 5 7.66667 6.36867 7.66667 8.04533C7.66667 9.06467 8.152 9.97 8.898 10.5227C8.51352 10.8107 8.20187 11.1849 7.98804 11.6151C7.77421 12.0453 7.66415 12.5196 7.66667 13C7.66667 14.02 8.152 14.9247 8.898 15.4773C8.51352 15.7654 8.20187 16.1395 7.98804 16.5697C7.77421 16.9999 7.66415 17.4743 7.66667 17.9547C7.66667 19.6313 8.97867 21 10.61 21C12.2407 21 13.5533 19.6313 13.5533 17.9547V15.38C14.0689 15.8099 14.7188 16.0455 15.39 16.046C17.0213 16.0453 18.3333 14.6767 18.3333 13C18.336 12.5196 18.226 12.0452 18.0122 11.615C17.7983 11.1847 17.4866 10.8106 17.102 10.5227C17.4865 10.2346 17.7981 9.86048 18.012 9.43027C18.2258 9.00007 18.3359 8.52575 18.3333 8.04533C18.3333 6.36867 17.0213 5 15.39 5H10.61ZM8.77267 8.04533C8.77267 6.98467 9.60067 6.13533 10.61 6.13533H12.4467V9.95533H10.61C9.60067 9.95533 8.77267 9.10533 8.77267 8.04533ZM15.39 9.95467H13.5533V6.13467H15.39C16.4 6.13467 17.2273 6.98467 17.2273 8.04533C17.2273 9.10533 16.4 9.95467 15.39 9.95467ZM8.77333 13C8.77333 11.94 9.60134 11.09 10.6107 11.09H12.4473V14.91H10.61C9.6 14.91 8.77267 14.06 8.77267 13H8.77333ZM13.5533 13C13.5533 11.94 14.3813 11.09 15.3907 11.09C16.4007 11.09 17.228 11.9393 17.228 13C17.228 14.06 16.4007 14.91 15.3907 14.91C14.3813 14.91 13.554 14.0607 13.554 13H13.5533ZM8.77333 17.9547C8.77333 16.8947 9.60134 16.0453 10.6107 16.0453H12.4473V17.9547C12.4473 19.0153 11.6207 19.8647 10.6107 19.8647C9.60134 19.8647 8.77333 19.0153 8.77333 17.9547Z" fill="white"/>
<circle cx="12.5" cy="12.5" r="12.5" fill="#B8B8B8" fill-opacity="0.25"/>
</svg>
