<svg width="25" height="25" viewBox="0 0 25 25" fill="none" xmlns="http://www.w3.org/2000/svg">
<circle cx="12.5" cy="12.5" r="12.5" fill="#B8B8B8" fill-opacity="0.25"/>
<path d="M18.1811 5.98719C17.7756 5.98081 16.8337 6.12729 15.261 7.24736C14.4038 7.01941 13.4919 6.90692 12.5783 6.90692C11.5731 6.90692 10.5574 7.04274 9.61007 7.31926C7.35214 5.68013 6.35551 6.01604 6.35551 6.01604C5.70487 7.74742 6.10693 9.02928 6.22914 9.34764C5.46441 10.2259 4.99756 11.3474 4.99756 12.7219C4.99756 13.7596 5.10855 14.6903 5.37971 15.4994C5.39475 15.5618 5.38987 15.5479 5.41521 15.6014C5.47495 15.7689 5.54137 15.9314 5.61603 16.0885C5.64161 16.145 5.6649 16.1868 5.6649 16.1868C6.42716 17.6988 7.92983 18.6755 10.6034 18.9821L14.6471 18.987C17.4984 18.6861 18.8666 17.7065 19.4971 16.1843L19.5372 16.0852C19.5969 15.9314 19.649 15.7715 19.7914 15.2329C19.9339 14.6944 19.9976 13.7617 19.9976 12.7215C19.9976 11.2297 19.471 10.036 18.616 9.12785C18.7654 8.61461 18.965 7.4748 18.4167 6.01562C18.4167 6.01562 18.3398 5.98969 18.1811 5.98718L18.1811 5.98719ZM14.9945 11.4617C15.6529 11.4602 16.2169 11.5805 16.6403 12.0532V12.0536C17.1701 12.6457 17.4802 13.3604 17.4802 14.1307C17.4802 17.7273 15.3064 17.8251 12.6253 17.8251C9.94362 17.8251 7.77034 17.3267 7.77034 14.1307C7.77034 13.3655 8.07587 12.655 8.59916 12.0654C9.47205 11.0827 10.9492 11.6031 12.6253 11.6031C13.4856 11.6029 14.2936 11.4633 14.9945 11.4617L14.9945 11.4617ZM10.0002 12.5208C9.44233 12.5208 8.99006 13.3234 8.99006 14.314C8.99006 15.3047 9.44231 16.1076 10.0002 16.1076C10.5581 16.1076 11.0104 15.3047 11.0104 14.314C11.0104 13.3236 10.5581 12.5215 10.0002 12.5208ZM15.4202 12.5208C14.8623 12.5208 14.41 13.3234 14.41 14.314C14.41 15.3047 14.8622 16.1076 15.4202 16.1076C15.978 16.1076 16.4303 15.3047 16.4303 14.314C16.4303 13.3236 15.9781 12.5215 15.4202 12.5208Z" fill="white"/>
</svg>
