<svg width="25" height="25" viewBox="0 0 25 25" fill="none" xmlns="http://www.w3.org/2000/svg">
<path fill-rule="evenodd" clip-rule="evenodd" d="M9.40795 5.045C10.2077 5.00818 10.4627 5 12.5 5C14.5373 5 14.7923 5.00886 15.5914 5.045C16.3905 5.08114 16.9359 5.20864 17.4132 5.39341C17.913 5.58227 18.3664 5.8775 18.7414 6.25932C19.1232 6.63364 19.4177 7.08636 19.6059 7.58682C19.7914 8.06409 19.9182 8.60955 19.955 9.40727C19.9918 10.2084 20 10.4634 20 12.5C20 14.5373 19.9911 14.7923 19.955 15.592C19.9189 16.3898 19.7914 16.9352 19.6059 17.4125C19.4177 17.913 19.1227 18.3665 18.7414 18.7414C18.3664 19.1232 17.913 19.4177 17.4132 19.6059C16.9359 19.7914 16.3905 19.9182 15.5927 19.955C14.7923 19.9918 14.5373 20 12.5 20C10.4627 20 10.2077 19.9911 9.40795 19.955C8.61023 19.9189 8.06477 19.7914 7.5875 19.6059C7.08699 19.4177 6.63351 19.1227 6.25864 18.7414C5.87708 18.3668 5.58181 17.9136 5.39341 17.4132C5.20864 16.9359 5.08182 16.3905 5.045 15.5927C5.00818 14.7916 5 14.5366 5 12.5C5 10.4627 5.00886 10.2077 5.045 9.40864C5.08114 8.60955 5.20864 8.06409 5.39341 7.58682C5.58208 7.08642 5.87758 6.63317 6.25932 6.25864C6.63366 5.87716 7.08669 5.58189 7.58682 5.39341C8.06409 5.20864 8.60955 5.08182 9.40727 5.045H9.40795ZM15.5307 6.395C14.7398 6.35886 14.5025 6.35136 12.5 6.35136C10.4975 6.35136 10.2602 6.35886 9.46932 6.395C8.73773 6.42841 8.34091 6.55045 8.07636 6.65341C7.72659 6.78977 7.47636 6.95136 7.21386 7.21386C6.96503 7.45594 6.77353 7.75065 6.65341 8.07636C6.55045 8.34091 6.42841 8.73773 6.395 9.46932C6.35886 10.2602 6.35136 10.4975 6.35136 12.5C6.35136 14.5025 6.35886 14.7398 6.395 15.5307C6.42841 16.2623 6.55045 16.6591 6.65341 16.9236C6.77341 17.2489 6.965 17.5441 7.21386 17.7861C7.45591 18.035 7.75114 18.2266 8.07636 18.3466C8.34091 18.4495 8.73773 18.5716 9.46932 18.605C10.2602 18.6411 10.4968 18.6486 12.5 18.6486C14.5032 18.6486 14.7398 18.6411 15.5307 18.605C16.2623 18.5716 16.6591 18.4495 16.9236 18.3466C17.2734 18.2102 17.5236 18.0486 17.7861 17.7861C18.035 17.5441 18.2266 17.2489 18.3466 16.9236C18.4495 16.6591 18.5716 16.2623 18.605 15.5307C18.6411 14.7398 18.6486 14.5025 18.6486 12.5C18.6486 10.4975 18.6411 10.2602 18.605 9.46932C18.5716 8.73773 18.4495 8.34091 18.3466 8.07636C18.2102 7.72659 18.0486 7.47636 17.7861 7.21386C17.544 6.96505 17.2493 6.77355 16.9236 6.65341C16.6591 6.55045 16.2623 6.42841 15.5307 6.395ZM11.542 14.812C12.077 15.0347 12.6728 15.0648 13.2275 14.8971C13.7821 14.7294 14.2614 14.3743 14.5834 13.8924C14.9053 13.4106 15.05 12.832 14.9928 12.2553C14.9355 11.6786 14.6798 11.1398 14.2693 10.7307C14.0077 10.4692 13.6913 10.269 13.343 10.1444C12.9946 10.0199 12.623 9.97411 12.2549 10.0104C11.8867 10.0467 11.5312 10.1642 11.214 10.3544C10.8967 10.5446 10.6255 10.8028 10.42 11.1104C10.2145 11.4179 10.0797 11.7672 10.0254 12.1332C9.97103 12.4991 9.99851 12.8725 10.1058 13.2265C10.2131 13.5805 10.3976 13.9063 10.6459 14.1805C10.8943 14.4547 11.2003 14.6704 11.542 14.812ZM9.77409 9.77409C10.1321 9.41612 10.557 9.13216 11.0247 8.93843C11.4925 8.7447 11.9938 8.64498 12.5 8.64498C13.0062 8.64498 13.5075 8.7447 13.9753 8.93843C14.443 9.13216 14.8679 9.41612 15.2259 9.77409C15.5839 10.1321 15.8678 10.557 16.0616 11.0247C16.2553 11.4925 16.355 11.9938 16.355 12.5C16.355 13.0062 16.2553 13.5075 16.0616 13.9753C15.8678 14.443 15.5839 14.8679 15.2259 15.2259C14.503 15.9489 13.5224 16.355 12.5 16.355C11.4776 16.355 10.497 15.9489 9.77409 15.2259C9.05113 14.503 8.64498 13.5224 8.64498 12.5C8.64498 11.4776 9.05113 10.497 9.77409 9.77409ZM17.21 9.21909C17.2987 9.13541 17.3697 9.03478 17.4188 8.92316C17.468 8.81155 17.4942 8.69121 17.496 8.56927C17.4977 8.44734 17.475 8.32628 17.4292 8.21328C17.3833 8.10028 17.3153 7.99762 17.2291 7.91139C17.1428 7.82516 17.0402 7.75711 16.9272 7.71126C16.8142 7.66542 16.6931 7.64271 16.5712 7.64449C16.4492 7.64627 16.3289 7.67249 16.2173 7.72161C16.1057 7.77073 16.005 7.84175 15.9214 7.93045C15.7586 8.10297 15.6695 8.33213 15.673 8.56927C15.6764 8.80641 15.7722 9.03287 15.9399 9.20057C16.1076 9.36828 16.334 9.46402 16.5712 9.46748C16.8083 9.47093 17.0375 9.38183 17.21 9.21909Z" fill="white"/>
<circle cx="12.5" cy="12.5" r="12.5" fill="#B8B8B8" fill-opacity="0.25"/>
</svg>
