<svg width="25" height="25" viewBox="0 0 25 25" fill="none" xmlns="http://www.w3.org/2000/svg">
<path fill-rule="evenodd" clip-rule="evenodd" d="M10.286 9.97934H12.762V11.2127C13.1186 10.5033 14.0333 9.86601 15.4073 9.86601C18.0413 9.86601 18.6666 11.278 18.6666 13.8687V18.6667H16V14.4587C16 12.9833 15.6433 12.1513 14.7353 12.1513C13.476 12.1513 12.9526 13.048 12.9526 14.458V18.6667H10.286V9.97934ZM5.71331 18.5533H8.37998V9.86601H5.71331V18.5533ZM8.76198 7.03334C8.76208 7.25686 8.71775 7.47817 8.63157 7.6844C8.54539 7.89064 8.41908 8.07769 8.25998 8.23468C7.93758 8.55509 7.50119 8.73445 7.04665 8.73334C6.59291 8.73304 6.15752 8.55414 5.83465 8.23534C5.67612 8.07782 5.55024 7.89056 5.46421 7.6843C5.37818 7.47804 5.3337 7.25683 5.33331 7.03334C5.33331 6.58201 5.51331 6.15001 5.83531 5.83134C6.1579 5.51212 6.59347 5.33314 7.04731 5.33334C7.50198 5.33334 7.93798 5.51268 8.25998 5.83134C8.58131 6.15001 8.76198 6.58201 8.76198 7.03334Z" fill="white"/>
<circle cx="12.5" cy="12.5" r="12.5" fill="#B8B8B8" fill-opacity="0.25"/>
</svg>
